<?xml version="1.0" encoding="utf-8"?>
<!-- Generator: Adobe Illustrator 18.1.0, SVG Export Plug-In . SVG Version: 6.00 Build 0)  -->
<!DOCTYPE svg PUBLIC "-//W3C//DTD SVG 1.1//EN" "http://www.w3.org/Graphics/SVG/1.1/DTD/svg11.dtd">
<svg version="1.1" id="Layer_1" xmlns="http://www.w3.org/2000/svg" xmlns:xlink="http://www.w3.org/1999/xlink" x="0px" y="0px"
	 viewBox="0 0 792 612" enable-background="new 0 0 792 612" xml:space="preserve">
<g>
	<path fill="#333333" d="M604.6,201.1c0,64.6-30.6,122.2-78,159v75.5H489v-95.2c14.1-8.7,26.7-19.4,37.6-31.8
		c25.2-28.7,40.5-66.5,40.5-107.6c0-90.1-73.4-163.5-163.5-163.5c-90.3,0-163.5,73.4-163.5,163.5c0,41.1,15.3,78.9,40.5,107.6
		c10.9,12.4,23.5,23.1,37.6,31.8v95.2h-37.6v-75.5c-47.4-36.9-78-94.3-78-158.9C202.4,90.3,292.6,0,403.5,0S604.6,90.3,604.6,201.1z
		"/>
	<path fill="#333333" d="M526.6,308.7c-10.9,12.4-23.5,23.1-37.6,31.8L526.6,308.7z"/>
</g>
<rect x="280.4" y="471.2" fill="#333333" width="246" height="30.6"/>
<rect x="291.8" y="525.3" fill="#333333" width="227.3" height="30.6"/>
<rect x="309.5" y="579.5" fill="#333333" width="194.5" height="30.6"/>
</svg>
