<?xml version="1.0" encoding="utf-8"?>
<!-- Generator: Adobe Illustrator 18.1.0, SVG Export Plug-In . SVG Version: 6.00 Build 0)  -->
<!DOCTYPE svg PUBLIC "-//W3C//DTD SVG 1.1//EN" "http://www.w3.org/Graphics/SVG/1.1/DTD/svg11.dtd">
<svg version="1.1" id="Layer_1" xmlns="http://www.w3.org/2000/svg" xmlns:xlink="http://www.w3.org/1999/xlink" x="0px" y="0px"
	 viewBox="0 0 360 360" enable-background="new 0 0 360 360" xml:space="preserve">
<g>
	<path fill="#FFFFFF" d="M201.6,191.7c0,13.4-10.8,24.1-24.1,24.1s-24.1-10.8-24.1-24.1s10.8-24.1,24.1-24.1
		S201.6,178.4,201.6,191.7z"/>
	<path fill="#FFFFFF" d="M177.5,149c-50.5,0-89.9,18.8-89.9,42.8c0,24,39.4,42.7,89.9,42.7s89.9-18.8,89.9-42.7
		C267.3,167.8,228,149,177.5,149z M177.5,226.9c-44.6,0-82.1-16.1-82.1-35.1s37.7-35.1,82.1-35.1c44.6,0,82.1,16.1,82.1,35.1
		C259.6,210.6,222.1,226.9,177.5,226.9z"/>
</g>
<g>
	<path fill="#FFFFFF" d="M195.4,191.7c0,9.9-8,17.9-17.9,17.9s-17.9-8-17.9-17.9c0-9.9,8-17.9,17.9-17.9S195.4,181.9,195.4,191.7z"
		/>
</g>
</svg>
