<?xml version="1.0" encoding="utf-8"?>
<!-- Generator: Adobe Illustrator 18.1.0, SVG Export Plug-In . SVG Version: 6.00 Build 0)  -->
<!DOCTYPE svg PUBLIC "-//W3C//DTD SVG 1.1//EN" "http://www.w3.org/Graphics/SVG/1.1/DTD/svg11.dtd">
<svg version="1.1" id="Layer_1" xmlns="http://www.w3.org/2000/svg" xmlns:xlink="http://www.w3.org/1999/xlink" x="0px" y="0px"
	 viewBox="0 0 360 360" enable-background="new 0 0 360 360" xml:space="preserve">
<g>
	<path d="M255.6,189.1c0,24.5-11.6,46.3-29.6,60.2v28.6h-14.2v-36.1c5.3-3.3,10.1-7.3,14.2-12c9.5-10.9,15.3-25.2,15.3-40.8
		c0-34.1-27.8-62-62-62s-62,27.8-62,62c0,15.6,5.8,29.9,15.3,40.8c4.1,4.7,8.9,8.8,14.2,12v36.1h-14.2v-28.6
		c-18-14-29.6-35.8-29.6-60.2c0-42,34.2-76.2,76.2-76.2S255.6,147.1,255.6,189.1z"/>
	<path d="M226,229.9c-4.1,4.7-8.9,8.8-14.2,12L226,229.9z"/>
</g>
<rect x="132.8" y="291.5" width="93.2" height="11.6"/>
<rect x="137.1" y="312" width="86.1" height="11.6"/>
<rect x="143.8" y="332.5" width="73.7" height="11.6"/>
</svg>
