<?xml version="1.0" encoding="utf-8"?>
<!-- Generator: Adobe Illustrator 18.1.0, SVG Export Plug-In . SVG Version: 6.00 Build 0)  -->
<!DOCTYPE svg PUBLIC "-//W3C//DTD SVG 1.1//EN" "http://www.w3.org/Graphics/SVG/1.1/DTD/svg11.dtd">
<svg version="1.1" id="Layer_1" xmlns="http://www.w3.org/2000/svg" xmlns:xlink="http://www.w3.org/1999/xlink" x="0px" y="0px"
	 viewBox="0 0 360 360" enable-background="new 0 0 360 360" xml:space="preserve">
<g>
	<path d="M302.7,118.3c0,38-18,71.9-45.9,93.5v44.4h-22.1v-56c8.3-5.1,15.7-11.4,22.1-18.7c14.8-16.9,23.8-39.1,23.8-63.3
		c0-53-43.2-96.2-96.2-96.2c-53.1,0-96.2,43.2-96.2,96.2c0,24.2,9,46.4,23.8,63.3c6.4,7.3,13.8,13.6,22.1,18.7v56H112v-44.4
		c-27.9-21.7-45.9-55.5-45.9-93.5C66.1,53.1,119.2,0,184.4,0C249.6,0,302.7,53.1,302.7,118.3z"/>
	<path d="M256.8,181.6c-6.4,7.3-13.8,13.6-22.1,18.7L256.8,181.6z"/>
</g>
<rect x="112" y="277.2" width="144.7" height="18"/>
<rect x="118.7" y="309" width="133.7" height="18"/>
<rect x="129.1" y="340.9" width="114.4" height="18"/>
</svg>
