<?xml version="1.0" encoding="utf-8"?>
<!-- Generator: Adobe Illustrator 18.1.0, SVG Export Plug-In . SVG Version: 6.00 Build 0)  -->
<!DOCTYPE svg PUBLIC "-//W3C//DTD SVG 1.1//EN" "http://www.w3.org/Graphics/SVG/1.1/DTD/svg11.dtd">
<svg version="1.1" id="Layer_1" xmlns="http://www.w3.org/2000/svg" xmlns:xlink="http://www.w3.org/1999/xlink" x="0px" y="0px"
	 viewBox="0 0 792 612" enable-background="new 0 0 792 612" xml:space="preserve">
<g>
	<path fill="#333333" d="M524.5,321.5c0,41.6-19.7,78.7-50.3,102.3v48.6h-24.1v-61.4c9-5.6,17.2-12.4,24.1-20.4
		c16.1-18.5,26-42.8,26-69.4c0-58-47.3-105.4-105.4-105.4s-105.4,47.3-105.4,105.4c0,26.5,9.9,50.8,26,69.4c7,8,15.1,15,24.1,20.4
		v61.4h-24.1v-48.6c-30.6-23.8-50.3-60.9-50.3-102.3c0-71.4,58.1-129.5,129.5-129.5S524.5,250.1,524.5,321.5z"/>
	<path fill="#333333" d="M474.2,390.8c-7,8-15.1,15-24.1,20.4L474.2,390.8z"/>
</g>
<rect x="315.8" y="495.6" fill="#333333" width="158.4" height="19.7"/>
<rect x="323.1" y="530.4" fill="#333333" width="146.4" height="19.7"/>
<rect x="334.5" y="565.2" fill="#333333" width="125.3" height="19.7"/>
</svg>
