<?xml version="1.0" encoding="utf-8"?>
<!-- Generator: Adobe Illustrator 18.1.0, SVG Export Plug-In . SVG Version: 6.00 Build 0)  -->
<!DOCTYPE svg PUBLIC "-//W3C//DTD SVG 1.1//EN" "http://www.w3.org/Graphics/SVG/1.1/DTD/svg11.dtd">
<svg version="1.1" id="Layer_1" xmlns="http://www.w3.org/2000/svg" xmlns:xlink="http://www.w3.org/1999/xlink" x="0px" y="0px"
	 viewBox="0 0 792 612" enable-background="new 0 0 792 612" xml:space="preserve">
<g enable-background="new    ">
	<path fill="#F55638" d="M63.1,236.3c0,3.7-0.7,7.3-2.1,10.7c-1.4,3.4-3.4,6.4-5.9,8.9c-2.5,2.5-5.4,4.6-8.7,6.1
		c-3.3,1.5-6.9,2.3-10.8,2.3c-3.3,0-6.6-0.5-10-1.4s-6.4-2.5-9.2-4.7c-2.7-2.2-5-5.1-6.7-8.7c-1.8-3.6-2.6-8.2-2.6-13.7v-66.5
		c0-4,0.7-7.6,2-11s3.3-6.3,5.8-8.8c2.5-2.5,5.5-4.4,8.9-5.9c3.5-1.4,7.3-2.1,11.5-2.1c4,0,7.6,0.7,11,2.1c3.4,1.4,6.3,3.4,8.8,5.9
		c2.5,2.5,4.4,5.6,5.9,9.2c1.4,3.6,2.1,7.4,2.1,11.6v6.8H45.8v-5.8c0-3.4-1-6.3-2.9-8.8c-1.9-2.5-4.5-3.7-7.8-3.7
		c-4.3,0-7.2,1.3-8.6,4c-1.4,2.7-2.1,6-2.1,10.1v61.8c0,3.5,0.8,6.5,2.3,8.8c1.5,2.4,4.3,3.6,8.2,3.6c1.1,0,2.3-0.2,3.6-0.6
		c1.3-0.4,2.5-1,3.6-2c1.1-0.9,2-2.1,2.6-3.7c0.7-1.6,1-3.6,1-5.9v-5.9h17.3V236.3z"/>
	<path fill="#F55638" d="M95,170.9c0-4.9,0.8-9.2,2.5-12.9c1.7-3.7,3.9-6.8,6.7-9.2c2.8-2.4,5.9-4.3,9.3-5.5
		c3.5-1.2,6.9-1.9,10.4-1.9c3.5,0,7,0.6,10.4,1.9c3.5,1.2,6.6,3.1,9.3,5.5c2.8,2.4,5,5.5,6.7,9.2c1.7,3.7,2.5,8,2.5,12.9v63.8
		c0,5-0.8,9.3-2.5,13c-1.7,3.7-3.9,6.7-6.7,9.2c-2.8,2.4-5.9,4.3-9.3,5.5c-3.5,1.2-6.9,1.9-10.4,1.9c-3.5,0-7-0.6-10.4-1.9
		c-3.5-1.2-6.6-3.1-9.3-5.5c-2.8-2.4-5-5.5-6.7-9.2c-1.7-3.7-2.5-8-2.5-13V170.9z M112.4,234.7c0,4.2,1.2,7.3,3.5,9.2
		c2.3,2,5.1,3,8.2,3c3.2,0,5.9-1,8.2-3c2.3-2,3.5-5.1,3.5-9.2v-63.8c0-4.2-1.2-7.3-3.5-9.2c-2.3-2-5.1-3-8.2-3c-3.2,0-5.9,1-8.2,3
		c-2.3,2-3.5,5.1-3.5,9.2V234.7z"/>
	<path fill="#F55638" d="M187.2,142.4h17.3v103.5h34.3v17.3h-51.6V142.4z"/>
	<path fill="#F55638" d="M267.8,170.9c0-4.9,0.8-9.2,2.5-12.9c1.7-3.7,3.9-6.8,6.7-9.2c2.8-2.4,5.9-4.3,9.3-5.5
		c3.5-1.2,6.9-1.9,10.4-1.9c3.5,0,7,0.6,10.4,1.9c3.5,1.2,6.6,3.1,9.3,5.5c2.8,2.4,5,5.5,6.7,9.2c1.7,3.7,2.5,8,2.5,12.9v63.8
		c0,5-0.8,9.3-2.5,13c-1.7,3.7-3.9,6.7-6.7,9.2c-2.8,2.4-5.9,4.3-9.3,5.5c-3.5,1.2-6.9,1.9-10.4,1.9c-3.5,0-7-0.6-10.4-1.9
		c-3.5-1.2-6.6-3.1-9.3-5.5c-2.8-2.4-5-5.5-6.7-9.2c-1.7-3.7-2.5-8-2.5-13V170.9z M285.1,234.7c0,4.2,1.2,7.3,3.5,9.2
		c2.3,2,5.1,3,8.2,3c3.2,0,5.9-1,8.2-3c2.3-2,3.5-5.1,3.5-9.2v-63.8c0-4.2-1.2-7.3-3.5-9.2c-2.3-2-5.1-3-8.2-3c-3.2,0-5.9,1-8.2,3
		c-2.3,2-3.5,5.1-3.5,9.2V234.7z"/>
	<path fill="#F55638" d="M360,142.4h16.6l22.2,64h0.3l22.1-64h16.8v120.8h-17.3v-73.5h-0.3l-17.1,51.9h-8.7l-17-51.9h-0.3v73.5H360
		V142.4z"/>
	<path fill="#F55638" d="M473.2,142.4h25.3c5.5,0,10.3,0.8,14.2,2.5c3.9,1.7,7.1,4,9.6,6.8c2.5,2.8,4.3,6.1,5.3,9.8
		c1.1,3.7,1.6,7.5,1.6,11.5v4.4c0,3.3-0.3,6.1-0.8,8.3c-0.5,2.3-1.3,4.2-2.3,5.9s-2.3,3.2-3.7,4.5c-1.5,1.3-3.2,2.5-5.1,3.6
		c4.1,1.9,7.1,4.8,9,8.6c1.9,3.8,2.9,8.9,2.9,15.2v6.8c0,10.6-2.6,18.8-7.7,24.4c-5.2,5.7-13.4,8.5-24.7,8.5h-23.6V142.4z
		 M490.5,192h7.8c5.8,0,9.6-1.4,11.6-4.3c2-2.9,3-7.1,3-12.6c0-5.4-1.1-9.5-3.3-12.2s-6.2-4.1-12-4.1h-7.1V192z M490.5,245.9h7.5
		c3.5,0,6.2-0.5,8.2-1.5c2-1,3.5-2.4,4.5-4.2c1-1.8,1.6-4,1.9-6.5c0.2-2.5,0.3-5.2,0.3-8.1c0-3.1-0.2-5.7-0.5-8
		c-0.3-2.3-1-4.2-2.1-5.7c-1.1-1.5-2.6-2.7-4.5-3.5c-1.9-0.8-4.5-1.2-7.6-1.2h-7.6V245.9z"/>
	<path fill="#F55638" d="M564.8,142.4h17.3v120.8h-17.3V142.4z"/>
	<path fill="#F55638" d="M617.1,142.4h16.6l26.1,72.8h0.3v-72.8h17.3v120.8h-16.3l-26.5-72.6h-0.3v72.6h-17.3V142.4z"/>
	<path fill="#F55638" d="M731.2,142.4h14.4l27,120.8h-17.3l-5.1-26h-23.6l-5.1,26h-17.3L731.2,142.4z M738.5,177.2h-0.3l-8.5,43.8
		H747L738.5,177.2z"/>
</g>
<g enable-background="new    ">
	<path fill="#F55638" d="M27.3,346.1h14.4l27,120.8H51.4l-5.1-26H22.7l-5.1,26H0.3L27.3,346.1z M34.6,380.9h-0.3l-8.5,43.8h17.3
		L34.6,380.9z"/>
	<path fill="#F55638" d="M95.4,346.1H112l26.1,72.8h0.3v-72.8h17.3V467h-16.3L113,394.3h-0.3V467H95.4V346.1z"/>
	<path fill="#F55638" d="M184.7,451.7l32.6-89.3h-30.9v-16.3h49.7v13.7l-33.3,90.8h33.3V467h-51.4V451.7z"/>
	<path fill="#F55638" d="M266.1,346.1h17.3V467h-17.3V346.1z"/>
	<path fill="#F55638" d="M353,467h-15.3l-24.6-120.8h18.3l13.7,84.4h0.3l13.9-84.4h18.3L353,467z"/>
	<path fill="#F55638" d="M407.5,346.1h17.3V467h-17.3V346.1z"/>
	<path fill="#F55638" d="M459.8,346.1h16.6l26.1,72.8h0.3v-72.8h17.3V467h-16.3l-26.5-72.6h-0.3V467h-17.3V346.1z"/>
	<path fill="#F55638" d="M553.6,374.6c0-4.9,0.8-9.2,2.5-12.9c1.7-3.7,3.9-6.8,6.7-9.2c2.8-2.4,5.9-4.3,9.3-5.5
		c3.5-1.2,6.9-1.9,10.4-1.9c3.5,0,7,0.6,10.4,1.9c3.5,1.2,6.6,3.1,9.3,5.5c2.8,2.4,5,5.5,6.7,9.2c1.7,3.7,2.5,8,2.5,12.9v63.8
		c0,5-0.8,9.3-2.5,13c-1.7,3.7-3.9,6.7-6.7,9.2c-2.8,2.4-5.9,4.3-9.3,5.5c-3.5,1.2-6.9,1.9-10.4,1.9c-3.5,0-7-0.6-10.4-1.9
		c-3.5-1.2-6.6-3.1-9.3-5.5c-2.8-2.4-5-5.5-6.7-9.2c-1.7-3.7-2.5-8-2.5-13V374.6z M570.9,438.5c0,4.2,1.2,7.3,3.5,9.2
		c2.3,2,5.1,3,8.2,3c3.2,0,5.9-1,8.2-3c2.3-2,3.5-5.1,3.5-9.2v-63.8c0-4.2-1.2-7.3-3.5-9.2c-2.3-2-5.1-3-8.2-3c-3.2,0-5.9,1-8.2,3
		c-2.3,2-3.5,5.1-3.5,9.2V438.5z"/>
</g>
</svg>
