<?xml version="1.0" encoding="utf-8"?>
<!-- Generator: Adobe Illustrator 18.1.1, SVG Export Plug-In . SVG Version: 6.00 Build 0)  -->
<!DOCTYPE svg PUBLIC "-//W3C//DTD SVG 1.1//EN" "http://www.w3.org/Graphics/SVG/1.1/DTD/svg11.dtd">
<svg version="1.1" id="Layer_1" xmlns="http://www.w3.org/2000/svg" xmlns:xlink="http://www.w3.org/1999/xlink" x="0px" y="0px"
	 width="567px" height="560px" viewBox="-196 0 567 560" enable-background="new -196 0 567 560" xml:space="preserve">
<path fill="#CCD7D9" d="M213.8,321.3l113.3,113.3c23.1,23.1,23.1,60.7,0,83.8l0,0c-23.1,23.1-60.6,23.1-83.7,0L130,405
	c-23.1-23.1-60.6-23.1-83.7,0L-67.2,518.4c-23.1,23.1-60.6,23.1-83.7,0l0,0c-23.2-23.1-23.2-60.6,0-83.8l113.3-113.3
	c23.1-23.1,23.1-60.6,0-83.7l-113.4-113.5c-23.1-23.1-23.1-60.6,0-83.7l0.1-0.1c23.1-23.1,60.6-23.1,83.7,0L46.2,153.6
	c23.1,23.1,60.6,23.1,83.7,0L243.3,40.3c23.1-23.1,60.6-23.1,83.7,0l0.1,0.1c23.1,23.1,23.1,60.6,0,83.7L213.8,237.5
	C190.6,260.7,190.6,298.1,213.8,321.3z"/>
</svg>
